<svg width="32" height="32" viewBox="0 0 32 32" fill="none" xmlns="http://www.w3.org/2000/svg">
<path d="M29.3334 13.3334V12.2894C29.3334 9.70272 29.3334 8.41072 28.552 7.60672C27.7707 6.80405 26.5147 6.80405 24 6.80405H21.228C20.0054 6.80405 19.9947 6.80139 18.8947 6.25072L14.4534 4.02805C12.5987 3.10005 11.6707 2.63605 10.6827 2.66805C9.69469 2.70005 8.80002 3.22405 7.00402 4.27205L5.36802 5.22672C4.04935 5.99605 3.39069 6.38139 3.02935 7.02139C2.66669 7.66139 2.66669 8.44005 2.66669 9.99872V20.9547C2.66669 23.0014 2.66669 24.0254 3.12269 24.5947C3.42669 24.9747 3.85202 25.2294 4.32269 25.3147C5.02935 25.4414 5.89602 24.9361 7.62669 23.9254C8.80269 23.2387 9.93335 22.5254 11.34 22.7187C12.5187 22.8814 13.6134 23.6254 14.6667 24.1521" stroke="#82D148" stroke-width="1.33333" stroke-linecap="round" stroke-linejoin="round"/>
<path d="M10.6667 2.66675V22.6667" stroke="#82D148" stroke-width="1.33333" stroke-linejoin="round"/>
<path d="M20 6.66675V12.6667" stroke="#82D148" stroke-width="1.33333" stroke-linecap="round" stroke-linejoin="round"/>
<path d="M24.4107 28.912C24.1181 29.1842 23.7329 29.3348 23.3333 29.3333C22.9307 29.3333 22.5453 29.1827 22.256 28.9107C19.608 26.4173 16.0613 23.6307 17.7907 19.5867C18.7267 17.4 20.9733 16 23.3333 16C25.6933 16 27.9413 17.4 28.876 19.5867C30.604 23.6267 27.0653 26.428 24.4107 28.912Z" stroke="#82D148" stroke-width="1.33333"/>
<path d="M23.3334 22H23.3454" stroke="#82D148" stroke-width="1.33333" stroke-linecap="round" stroke-linejoin="round"/>
</svg>
