<svg width="36" height="36" viewBox="0 0 36 36" fill="none" xmlns="http://www.w3.org/2000/svg">
<path d="M3.75 18C3.75 11.283 3.75 7.923 5.8365 5.8365C7.923 3.75 11.2815 3.75 18 3.75C24.717 3.75 28.077 3.75 30.1635 5.8365C32.25 7.923 32.25 11.2815 32.25 18C32.25 24.717 32.25 28.077 30.1635 30.1635C28.077 32.25 24.7185 32.25 18 32.25C11.283 32.25 7.923 32.25 5.8365 30.1635C3.75 28.077 3.75 24.7185 3.75 18Z" stroke="#075E5F" stroke-width="1.75" stroke-linejoin="round"/>
<path d="M24.75 18C24.75 19.7902 24.0388 21.5071 22.773 22.773C21.5071 24.0388 19.7902 24.75 18 24.75C16.2098 24.75 14.4929 24.0388 13.227 22.773C11.9612 21.5071 11.25 19.7902 11.25 18C11.25 16.2098 11.9612 14.4929 13.227 13.227C14.4929 11.9612 16.2098 11.25 18 11.25C19.7902 11.25 21.5071 11.9612 22.773 13.227C24.0388 14.4929 24.75 16.2098 24.75 18Z" stroke="#075E5F" stroke-width="1.75"/>
<path d="M26.2619 9.75H26.2469" stroke="#075E5F" stroke-width="1.75" stroke-linecap="round" stroke-linejoin="round"/>
</svg>
