<svg width="32" height="32" viewBox="0 0 32 32" fill="none" xmlns="http://www.w3.org/2000/svg">
<path d="M2.66669 2.66663H21.3334C23.848 2.66663 25.104 2.66663 25.8854 3.44796C26.6667 4.22929 26.6667 5.48529 26.6667 7.99996V16C26.6667 18.5146 26.6667 19.7706 25.8854 20.552C25.104 21.3333 23.848 21.3333 21.3334 21.3333H12M13.3334 8.66663H21.3334M2.66669 22.6666V17.3333C2.66669 16.076 2.66669 15.448 3.05735 15.0573C3.44802 14.6666 4.07602 14.6666 5.33335 14.6666H8.00002M2.66669 22.6666H8.00002M2.66669 22.6666V29.3333M8.00002 14.6666V22.6666M8.00002 14.6666H16M8.00002 22.6666V29.3333" stroke="#82D148" stroke-width="1.33333" stroke-linecap="round" stroke-linejoin="round"/>
<path d="M8.00002 8.66667C8.00002 9.37391 7.71907 10.0522 7.21897 10.5523C6.71888 11.0524 6.0406 11.3333 5.33335 11.3333C4.62611 11.3333 3.94783 11.0524 3.44774 10.5523C2.94764 10.0522 2.66669 9.37391 2.66669 8.66667C2.66669 7.95942 2.94764 7.28115 3.44774 6.78105C3.94783 6.28095 4.62611 6 5.33335 6C6.0406 6 6.71888 6.28095 7.21897 6.78105C7.71907 7.28115 8.00002 7.95942 8.00002 8.66667Z" stroke="#82D148" stroke-width="1.33333"/>
</svg>
