<svg width="32" height="32" viewBox="0 0 32 32" fill="none" xmlns="http://www.w3.org/2000/svg">
<path d="M16 21.3333C18.9455 21.3333 21.3334 18.9455 21.3334 16C21.3334 13.0544 18.9455 10.6666 16 10.6666C13.0545 10.6666 10.6667 13.0544 10.6667 16C10.6667 18.9455 13.0545 21.3333 16 21.3333Z" stroke="#82D148" stroke-width="1.33333" stroke-linecap="round" stroke-linejoin="round"/>
<path d="M29.3334 12H29.32M2.68002 12H2.66669M16.0067 29.3333H15.9934" stroke="#82D148" stroke-width="1.33333" stroke-linecap="round" stroke-linejoin="round"/>
<path d="M10.0747 28C8.05415 27.0178 6.31517 25.5401 5.01982 23.7046C3.72448 21.8691 2.91495 19.7355 2.66669 17.5026M21.9254 28C23.9459 27.0178 25.6849 25.5401 26.9802 23.7046C28.2756 21.8691 29.0851 19.7355 29.3334 17.5026M7.40802 5.67597C9.79203 3.73029 12.7748 2.6676 15.852 2.6676C18.9292 2.6676 21.912 3.73029 24.296 5.67597" stroke="#82D148" stroke-width="1.33333" stroke-linecap="round" stroke-linejoin="round"/>
</svg>
