<svg width="129" height="120" viewBox="0 0 129 120" fill="none" xmlns="http://www.w3.org/2000/svg">
<path d="M75.4108 1C75.7829 1 76.2821 1.20054 76.9049 1.88965C77.5251 2.57594 78.1712 3.6449 78.8141 5.11523C80.0968 8.0489 81.2756 12.3569 82.274 17.7559C84.2678 28.5374 85.5065 43.4735 85.5065 60C85.5065 76.5265 84.2678 91.4626 82.274 102.244C81.2756 107.643 80.0968 111.951 78.8141 114.885C78.1712 116.355 77.5251 117.424 76.9049 118.11C76.2821 118.799 75.7829 119 75.4108 119C75.0386 119 74.5393 118.799 73.9166 118.11C73.2965 117.424 72.6512 116.355 72.0084 114.885C70.7257 111.951 69.5469 107.643 68.5485 102.244C66.5547 91.4626 65.3151 76.5266 65.3151 60C65.3151 43.4734 66.5547 28.5374 68.5485 17.7559C69.5469 12.3569 70.7257 8.0489 72.0084 5.11523C72.6512 3.64509 73.2965 2.57591 73.9166 1.88965C74.5393 1.2006 75.0386 1.00007 75.4108 1Z" stroke="#81DB3E" stroke-width="2"/>
<path d="M53.8361 1C54.12 1.00017 54.558 1.16646 55.1388 1.86035C55.7121 2.54549 56.3107 3.61691 56.9073 5.09082C58.0969 8.02931 59.1895 12.3409 60.1144 17.7422C61.9614 28.529 63.1095 43.4701 63.1095 60C63.1095 76.5299 61.9614 91.471 60.1144 102.258C59.1895 107.659 58.0969 111.971 56.9073 114.909C56.3107 116.383 55.7121 117.455 55.1388 118.14C54.558 118.834 54.12 119 53.8361 119C53.5521 119 53.1134 118.834 52.5323 118.14C51.959 117.455 51.3605 116.383 50.7638 114.909C49.5742 111.971 48.4816 107.659 47.5568 102.258C45.7097 91.471 44.5616 76.5299 44.5616 60C44.5616 43.4701 45.7097 28.529 47.5568 17.7422C48.4816 12.341 49.5742 8.02931 50.7638 5.09082C51.3605 3.61691 51.959 2.54549 52.5323 1.86035C53.1134 1.16606 53.5521 1 53.8361 1Z" stroke="#81DB3E" stroke-width="2"/>
<path d="M63.1752 53.708C63.2245 55.0914 63.2562 56.4887 63.2728 57.8984L62.2758 57.9102C62.2839 58.6038 62.2875 59.3005 62.2875 60C62.2875 60.6995 62.2839 61.3962 62.2758 62.0898L63.2728 62.1006C63.2562 63.5103 63.2245 64.9076 63.1752 66.291L62.1771 66.2568C62.127 67.662 62.0599 69.0526 61.9769 70.4268L62.974 70.4863C62.8888 71.8975 62.7857 73.2916 62.6674 74.667L61.6732 74.582C61.5524 75.9864 61.4144 77.371 61.2601 78.7334L62.2523 78.8447C62.0927 80.2547 61.9158 81.6415 61.722 83.0029L60.7328 82.8633C60.5335 84.2638 60.3172 85.6372 60.0834 86.9805L61.0668 87.1504C60.8223 88.5546 60.5599 89.9269 60.2797 91.2646L59.3021 91.0605C59.0107 92.4518 58.7005 93.8051 58.3724 95.1162L59.3402 95.3584C58.9908 96.755 58.6213 98.1058 58.2328 99.4072L57.2767 99.1221C56.8676 100.493 56.4375 101.806 55.9886 103.058L56.9291 103.395C56.437 104.767 55.921 106.068 55.3842 107.294L54.4691 106.895C53.8896 108.218 53.2865 109.445 52.6635 110.571L53.5365 111.055C52.8116 112.365 52.0569 113.547 51.2758 114.59L50.4769 113.991C49.6001 115.162 48.7027 116.134 47.7933 116.898L48.4349 117.662C47.2653 118.646 46.0542 119.335 44.809 119.698L44.5297 118.739C43.9364 118.913 43.3399 119 42.7396 119C42.1394 119 41.5428 118.913 40.9496 118.739L40.6693 119.698C39.4244 119.334 38.2136 118.645 37.0443 117.662L37.6869 116.898C36.7774 116.134 35.8793 115.163 35.0023 113.991L34.2025 114.59C33.4214 113.546 32.6676 112.364 31.9427 111.054L32.8158 110.571C32.1927 109.445 31.5897 108.218 31.0101 106.895L30.0941 107.294C29.5573 106.068 29.0413 104.767 28.5492 103.395L29.4906 103.058C29.0418 101.806 28.6126 100.492 28.2035 99.1221L27.2455 99.4072C26.857 98.1058 26.4875 96.755 26.1381 95.3584L27.1078 95.1162C26.7797 93.805 26.4686 92.4519 26.1771 91.0605L25.1986 91.2646C24.9184 89.9269 24.6559 88.5545 24.4115 87.1504L25.3959 86.9805C25.162 85.6372 24.9457 84.2638 24.7465 82.8633L23.7572 83.0029C23.5635 81.6415 23.3865 80.2547 23.2269 78.8447L24.2191 78.7334C24.0649 77.371 23.9269 75.9864 23.806 74.582L22.8109 74.667C22.6926 73.2917 22.5904 71.8975 22.5052 70.4863L23.5023 70.4268C23.4194 69.0526 23.3533 67.662 23.3031 66.2568L22.3041 66.291C22.2547 64.9076 22.2221 63.5103 22.2054 62.1006L23.2045 62.0898C23.1963 61.3962 23.1918 60.6995 23.1918 60C23.1918 59.3005 23.1963 58.6038 23.2045 57.9102L22.2054 57.8984C22.2221 56.4887 22.2547 55.0914 22.3041 53.708L23.3031 53.7432C23.3533 52.338 23.4194 50.9474 23.5023 49.5732L22.5052 49.5127C22.5904 48.1015 22.6926 46.7074 22.8109 45.332L23.806 45.418C23.9269 44.0136 24.0649 42.629 24.2191 41.2666L23.2269 41.1543C23.3865 39.7443 23.5635 38.3576 23.7572 36.9961L24.7465 37.1367C24.9457 35.7362 25.162 34.3628 25.3959 33.0195L24.4115 32.8486C24.6559 31.4445 24.9184 30.0721 25.1986 28.7344L26.1771 28.9395C26.4686 27.5481 26.7797 26.195 27.1078 24.8838L26.1381 24.6406C26.4875 23.2441 26.857 21.8932 27.2455 20.5918L28.2035 20.8779C28.6126 19.5075 29.0418 18.1941 29.4906 16.9424L28.5492 16.6045C29.0413 15.2321 29.5573 13.9306 30.0941 12.7051L31.0101 13.1055C31.5897 11.7824 32.1927 10.5548 32.8158 9.42871L31.9427 8.94531C32.6677 7.63522 33.4213 6.45256 34.2025 5.40918L35.0023 6.00879C35.8793 4.83743 36.7774 3.86632 37.6869 3.10156L37.0443 2.33691C38.2136 1.35383 39.4245 0.664455 40.6693 0.300781L40.9496 1.26074C41.5428 1.08746 42.1394 1.00001 42.7396 1C43.3399 1 43.9364 1.08745 44.5297 1.26074L44.809 0.300781C46.0541 0.664361 47.2654 1.35359 48.4349 2.33691L47.7933 3.10156C48.7027 3.86627 49.6001 4.83758 50.4769 6.00879L51.2758 5.40918C52.0569 6.45248 52.8116 7.63434 53.5365 8.94434L52.6635 9.42871C53.2865 10.5548 53.8896 11.7824 54.4691 13.1055L55.3842 12.7051C55.921 13.9306 56.437 15.2321 56.9291 16.6045L55.9886 16.9424C56.4375 18.1942 56.8676 19.5075 57.2767 20.8779L58.2328 20.5918C58.6213 21.8932 58.9908 23.244 59.3402 24.6406L58.3724 24.8838C58.7005 26.1949 59.0107 27.5482 59.3021 28.9395L60.2797 28.7344C60.5599 30.0721 60.8223 31.4445 61.0668 32.8486L60.0834 33.0195C60.3172 34.3628 60.5335 35.7362 60.7328 37.1367L61.722 36.9961C61.9158 38.3576 62.0927 39.7443 62.2523 41.1543L61.2601 41.2666C61.4144 42.629 61.5524 44.0136 61.6732 45.418L62.6674 45.332C62.7857 46.7074 62.8888 48.1015 62.974 49.5127H62.975L61.9769 49.5732C62.0599 50.9474 62.127 52.338 62.1771 53.7432L63.1752 53.708Z" stroke="#81DB3E" stroke-width="2" stroke-dasharray="4 4"/>
<path d="M106.731 53.666C106.783 55.0586 106.817 56.4654 106.834 57.8848L105.836 57.8965C105.845 58.5945 105.849 59.296 105.849 60C105.849 60.704 105.845 61.4055 105.836 62.1035L106.834 62.1143C106.817 63.5336 106.783 64.9404 106.731 66.333L105.733 66.2969C105.68 67.711 105.609 69.1105 105.522 70.4932L106.519 70.5547C106.429 71.9749 106.321 73.3779 106.197 74.7617L105.201 74.6729C105.074 76.0861 104.929 77.4791 104.767 78.8496L105.758 78.9668C105.59 80.3846 105.403 81.7789 105.199 83.1475L104.212 83.001C104.002 84.4096 103.773 85.7903 103.527 87.1406L104.511 87.3203C104.253 88.7321 103.973 90.1109 103.678 91.4551L102.703 91.2422C102.397 92.6378 102.071 93.9944 101.726 95.3086L102.691 95.5615C102.323 96.9635 101.934 98.3189 101.525 99.624L100.573 99.3262C100.142 100.699 99.6901 102.014 99.218 103.267L100.152 103.618C99.6342 104.991 99.0918 106.291 98.5276 107.515L97.6213 107.097C97.0137 108.414 96.3825 109.636 95.7297 110.754L96.592 111.257C95.8325 112.558 95.0419 113.729 94.2239 114.761L93.4417 114.141C92.5313 115.288 91.599 116.238 90.6545 116.983L91.2727 117.767C90.076 118.711 88.8375 119.37 87.5657 119.716L87.304 118.753C86.7001 118.917 86.0922 119 85.4797 119C84.8674 119 84.2593 118.917 83.6555 118.753L83.3928 119.717C82.1207 119.371 80.8817 118.711 79.6848 117.767L80.304 116.983C79.3596 116.238 78.4281 115.288 77.5178 114.141L76.7336 114.761C75.9158 113.729 75.1259 112.558 74.3665 111.257L75.2297 110.754C74.5769 109.636 73.9448 108.414 73.3372 107.097L72.4309 107.515C71.8667 106.291 71.3243 104.991 70.8069 103.618L71.7415 103.267C71.2694 102.014 70.8174 100.699 70.387 99.3262L69.4338 99.624C69.0247 98.3189 68.6349 96.9636 68.2668 95.5615L69.2336 95.3086C68.8886 93.9944 68.5618 92.6378 68.2551 91.2422L67.2795 91.4551C66.9842 90.1109 66.7051 88.7321 66.4475 87.3203L67.4319 87.1406C67.1855 85.7903 66.9573 84.4096 66.7473 83.001L65.759 83.1475C65.555 81.7786 65.3686 80.384 65.2004 78.9658L66.1926 78.8496C66.0301 77.4791 65.8844 76.0861 65.7571 74.6729L64.762 74.7617C64.6373 73.3779 64.5295 71.9749 64.4397 70.5547L65.4377 70.4932C65.3503 69.1105 65.2797 67.711 65.2268 66.2969L64.2278 66.333C64.1758 64.9404 64.1408 63.5336 64.1233 62.1143L65.1223 62.1035C65.1137 61.4055 65.1096 60.704 65.1096 60C65.1096 59.296 65.1137 58.5945 65.1223 57.8965L64.1233 57.8848C64.1408 56.4654 64.1757 55.0586 64.2278 53.666L65.2268 53.7031C65.2797 52.289 65.3503 50.8895 65.4377 49.5068L64.4397 49.4443C64.5295 48.0241 64.6373 46.6211 64.762 45.2373L65.7571 45.3271C65.8844 43.9139 66.0301 42.5209 66.1926 41.1504L65.2004 41.0322C65.3686 39.6144 65.555 38.2201 65.759 36.8516L66.7473 36.999C66.9573 35.5904 67.1855 34.2097 67.4319 32.8594L66.4485 32.6797L66.4475 32.6787C66.7051 31.267 66.9842 29.8881 67.2795 28.5439L68.2551 28.7578C68.5618 27.3622 68.8886 26.0056 69.2336 24.6914L68.2668 24.4375C68.6349 23.0354 69.0247 21.6802 69.4338 20.375L70.387 20.6738C70.8174 19.3008 71.2694 17.9857 71.7415 16.7334L70.8069 16.3809C71.3243 15.0082 71.8667 13.7078 72.4309 12.4844L73.3372 12.9033C73.9448 11.5858 74.5769 10.3643 75.2297 9.24609L74.3665 8.74219C75.1259 7.44143 75.9158 6.26954 76.7336 5.23828L77.5178 5.85938C78.4281 4.71171 79.3596 3.76186 80.304 3.0166L79.6848 2.23242C80.8817 1.28791 82.1208 0.628316 83.3928 0.282227L83.6555 1.24707C84.2593 1.08281 84.8674 1 85.4797 1C86.0922 1.00002 86.7001 1.08275 87.304 1.24707L87.5657 0.283203C88.8374 0.629192 90.0761 1.28823 91.2727 2.23242L90.6545 3.0166C91.599 3.76192 92.5313 4.71157 93.4417 5.85938L94.2239 5.23828C95.0419 6.26966 95.8325 7.44122 96.592 8.74219L95.7297 9.24609C96.3825 10.3643 97.0137 11.5858 97.6213 12.9033L98.5276 12.4844C99.0918 13.7078 99.6342 15.0082 100.152 16.3809L99.218 16.7334C99.6901 17.9857 100.142 19.3008 100.573 20.6738L101.525 20.375C101.934 21.6801 102.323 23.0355 102.691 24.4375L101.726 24.6914C102.071 26.0056 102.397 27.3622 102.703 28.7578L103.678 28.5439C103.973 29.8882 104.253 31.2669 104.511 32.6787V32.6797L103.527 32.8594C103.773 34.2097 104.002 35.5904 104.212 36.999L105.199 36.8516C105.404 38.2204 105.59 39.615 105.758 41.0332L104.767 41.1504C104.929 42.5209 105.074 43.9139 105.201 45.3271L106.197 45.2373C106.321 46.6211 106.429 48.0241 106.519 49.4443H106.52L105.522 49.5068C105.609 50.8895 105.68 52.289 105.733 53.7031L106.731 53.666Z" stroke="#81DB3E" stroke-width="2" stroke-dasharray="4 4"/>
<path d="M21.3701 1C26.448 1.00009 31.633 3.81128 36.6211 8.43262C41.5926 13.0387 46.2492 19.3346 50.2539 26.043C54.255 32.7454 57.5824 39.82 59.9062 45.9512C62.2463 52.1251 63.5205 57.2173 63.5205 60C63.5205 62.7693 62.2029 67.6471 59.7988 73.5645C57.4128 79.4371 54.0102 86.2052 49.9561 92.707C45.8997 99.2125 41.2101 105.421 36.2598 110.194C31.3178 114.959 26.2102 118.201 21.291 118.998C18.7761 118.968 16.2466 117.527 13.8164 114.641C11.365 111.729 9.11251 107.457 7.20117 102.091C3.38153 91.3664 1 76.4852 1 60C1 43.5148 3.38153 28.6336 7.20117 17.9092C9.11251 12.5427 11.365 8.27062 13.8164 5.35938C16.272 2.44326 18.8292 1 21.3701 1Z" stroke="#81DB3E" stroke-width="2"/>
<path d="M107.26 119C102.182 119 96.9971 116.189 92.009 111.567C87.0375 106.961 82.3809 100.665 78.3762 93.957C74.3751 87.2546 71.0477 80.18 68.7239 74.0488C66.3838 67.8749 65.1096 62.7827 65.1096 60C65.1096 57.2307 66.4272 52.3529 68.8313 46.4355C71.2173 40.5629 74.62 33.7948 78.6741 27.293C82.7305 20.7874 87.42 14.579 92.3704 9.80566C97.3123 5.04051 102.42 1.79865 107.339 1.00195C109.854 1.0315 112.384 2.47343 114.814 5.35937C117.265 8.27062 119.518 12.5427 121.429 17.9092C125.249 28.6336 127.63 43.5148 127.63 60C127.63 76.4852 125.249 91.3664 121.429 102.091C119.518 107.457 117.265 111.729 114.814 114.641C112.358 117.557 109.801 119 107.26 119Z" stroke="#81DB3E" stroke-width="2"/>
</svg>
