<svg width="32" height="32" viewBox="0 0 32 32" fill="none" xmlns="http://www.w3.org/2000/svg">
<path d="M14.0667 4C8.93069 4.00933 6.24002 4.136 4.52135 5.85333C2.66669 7.71067 2.66669 10.696 2.66669 16.6667C2.66669 22.6373 2.66669 25.6227 4.52135 27.4787C6.37735 29.3333 9.36135 29.3333 15.3347 29.3333C21.3054 29.3333 24.2907 29.3333 26.1454 27.4787C27.8654 25.7587 27.9907 23.0693 28 17.932" stroke="#82D148" stroke-width="1.33333" stroke-linecap="round" stroke-linejoin="round"/>
<path d="M14.7414 17.3334C13.776 5.1547 22.4027 1.70137 29.3067 2.88537C29.5854 6.92137 27.6094 8.43204 23.8494 9.1307C24.576 9.8907 25.8587 10.8454 25.72 12.0374C25.6214 12.888 25.0454 13.304 23.8907 14.1387C21.3627 15.9654 18.4347 17.1174 14.7414 17.3334Z" stroke="#82D148" stroke-width="1.33333" stroke-linecap="round" stroke-linejoin="round"/>
<path d="M12 22.6667C14.6667 15.3334 17.28 12.8481 20 10.6667" stroke="#82D148" stroke-width="1.33333" stroke-linecap="round" stroke-linejoin="round"/>
</svg>
