<svg width="36" height="36" viewBox="0 0 36 36" fill="none" xmlns="http://www.w3.org/2000/svg">
<path d="M18 30.7501C20.715 30.7501 23.3175 30.4816 25.7295 29.9896C28.7445 29.3746 30.2505 29.0686 31.6245 27.3016C33 25.5331 33 23.5036 33 19.4446V16.5556C33 12.4966 33 10.4656 31.6245 8.69855C30.2505 6.93155 28.7445 6.62405 25.7295 6.01055C23.1847 5.50049 20.5954 5.24573 18 5.25005C15.285 5.25005 12.6825 5.51855 10.2705 6.01055C7.2555 6.62555 5.7495 6.93155 4.3755 8.69855C3 10.4671 3 12.4966 3 16.5556V19.4446C3 23.5036 3 25.5346 4.3755 27.3016C5.7495 29.0686 7.2555 29.3761 10.2705 29.9896C12.6825 30.4816 15.285 30.7501 18 30.7501Z" stroke="#075E5F" stroke-width="1.75"/>
<path d="M23.943 18.4694C23.721 19.3784 22.536 20.0294 20.1675 21.3359C17.5905 22.7564 16.302 23.4659 15.2595 23.1914C14.9121 23.1017 14.5875 22.9397 14.307 22.7159C13.5 22.0634 13.5 20.7089 13.5 17.9999C13.5 15.2909 13.5 13.9364 14.307 13.2839C14.58 13.0634 14.907 12.8999 15.2595 12.8084C16.302 12.5339 17.5905 13.2434 20.1675 14.6639C22.5375 15.9689 23.721 16.6214 23.943 17.5304C24.018 17.8394 24.018 18.1604 23.943 18.4694Z" stroke="#075E5F" stroke-width="1.75" stroke-linejoin="round"/>
</svg>
