<svg width="129" height="120" viewBox="0 0 129 120" fill="none" xmlns="http://www.w3.org/2000/svg">
<path d="M10.2744 1C10.5583 1.00017 10.9964 1.16646 11.5771 1.86035C12.1505 2.54549 12.749 3.61691 13.3457 5.09082C14.5353 8.02931 15.6279 12.3409 16.5527 17.7422C18.3998 28.529 19.5479 43.4701 19.5479 60C19.5479 76.5299 18.3998 91.471 16.5527 102.258C15.6279 107.659 14.5353 111.971 13.3457 114.909C12.749 116.383 12.1505 117.455 11.5771 118.14C10.9964 118.834 10.5583 119 10.2744 119C9.9905 119 9.5518 118.834 8.9707 118.14C8.39738 117.455 7.79885 116.383 7.20215 114.909C6.01257 111.971 4.91999 107.659 3.99512 102.258C2.14805 91.471 1 76.5299 1 60C1 43.4701 2.14805 28.529 3.99512 17.7422C4.91999 12.341 6.01257 8.02931 7.20215 5.09082C7.79885 3.61691 8.39738 2.54549 8.9707 1.86035C9.5518 1.16606 9.9905 1 10.2744 1Z" stroke="#0DB1B3" stroke-width="2"/>
<path d="M30.4107 1C32.0148 1 33.8095 2.26733 35.6383 5.23926C37.4325 8.15508 39.0845 12.4408 40.4859 17.8252C43.285 28.5794 45.0269 43.4911 45.0269 60C45.0269 76.5089 43.285 91.4206 40.4859 102.175C39.0845 107.559 37.4325 111.845 35.6383 114.761C33.8095 117.733 32.0148 119 30.4107 119C28.8068 119 27.0129 117.733 25.1842 114.761C23.3899 111.845 21.738 107.559 20.3365 102.175C17.5375 91.4206 15.7945 76.5089 15.7945 60C15.7945 43.4911 17.5375 28.5794 20.3365 17.8252C21.738 12.4408 23.3899 8.15506 25.1842 5.23926C27.0129 2.26748 28.8068 1.00012 30.4107 1Z" stroke="#0DB1B3" stroke-width="2"/>
<path d="M99.4525 1C106.791 1.00026 113.729 7.23818 118.892 18.0059C124.02 28.7014 127.219 43.5474 127.219 60C127.219 76.4526 124.02 91.2986 118.892 101.994C113.729 112.762 106.791 119 99.4525 119C92.1137 119 85.1748 112.762 80.0121 101.994C74.8841 91.2987 71.6849 76.4526 71.6849 60C71.6849 43.5474 74.8841 28.7013 80.0121 18.0059C85.1748 7.23796 92.1137 1 99.4525 1Z" stroke="#0DB1B3" stroke-width="2"/>
<path d="M79.6074 53.666C79.6594 55.0586 79.6934 56.4654 79.7109 57.8848L78.7129 57.8965C78.7215 58.5945 78.7256 59.296 78.7256 60C78.7256 60.704 78.7215 61.4055 78.7129 62.1035L79.7109 62.1143C79.6934 63.5336 79.6594 64.9404 79.6074 66.333L78.6093 66.2969C78.5565 67.711 78.4858 69.1105 78.3984 70.4932L79.3955 70.5547C79.3057 71.9749 79.1979 73.3779 79.0732 74.7617L78.0781 74.6729C77.9507 76.0861 77.806 77.4791 77.6435 78.8496L78.6347 78.9668C78.4666 80.3846 78.2801 81.7789 78.0761 83.1475L77.0888 83.001C76.8788 84.4096 76.6497 85.7903 76.4033 87.1406L77.3877 87.3203C77.13 88.7321 76.85 90.1109 76.5547 91.4551L75.58 91.2422C75.2734 92.6378 74.9475 93.9944 74.6025 95.3086L75.5674 95.5615C75.1993 96.9635 74.8105 98.3189 74.4013 99.624L73.4492 99.3262C73.0188 100.699 72.5668 102.014 72.0947 103.267L73.0283 103.618C72.5109 104.991 71.9685 106.291 71.4043 107.515L70.498 107.097C69.8904 108.414 69.2592 109.636 68.6064 110.754L69.4687 111.257C68.7092 112.558 67.9186 113.729 67.1006 114.761L66.3183 114.141C65.408 115.288 64.4757 116.238 63.5312 116.983L64.1494 117.767C62.9527 118.711 61.7142 119.37 60.4424 119.716L60.1806 118.753C59.5768 118.917 58.9689 119 58.3564 119C57.744 119 57.136 118.917 56.5322 118.753L56.2695 119.717C54.9974 119.371 53.7584 118.711 52.5615 117.767L53.1806 116.983C52.2363 116.238 51.3047 115.288 50.3945 114.141L49.6103 114.761C48.7925 113.729 48.0025 112.558 47.2431 111.257L48.1064 110.754C47.4536 109.636 46.8215 108.414 46.2138 107.097L45.3076 107.515C44.7434 106.291 44.201 104.991 43.6836 103.618L44.6181 103.267C44.1461 102.014 43.6941 100.699 43.2636 99.3262L42.3105 99.624C41.9014 98.3189 41.5116 96.9636 41.1435 95.5615L42.1103 95.3086C41.7653 93.9944 41.4384 92.6378 41.1318 91.2422L40.1562 91.4551C39.8609 90.1109 39.5818 88.7321 39.3242 87.3203L40.3086 87.1406C40.0622 85.7903 39.834 84.4096 39.624 83.001L38.6357 83.1475C38.4317 81.7786 38.2453 80.384 38.0771 78.9658L39.0693 78.8496C38.9068 77.4791 38.7611 76.0861 38.6338 74.6729L37.6386 74.7617C37.514 73.3779 37.4061 71.9749 37.3164 70.5547L38.3144 70.4932C38.227 69.1105 38.1563 67.711 38.1035 66.2969L37.1045 66.333C37.0524 64.9404 37.0175 63.5336 37 62.1143L37.999 62.1035C37.9904 61.4055 37.9863 60.704 37.9863 60C37.9863 59.296 37.9904 58.5945 37.999 57.8965L37 57.8848C37.0175 56.4654 37.0524 55.0586 37.1045 53.666L38.1035 53.7031C38.1563 52.289 38.227 50.8895 38.3144 49.5068L37.3164 49.4443C37.4062 48.0241 37.5139 46.6211 37.6386 45.2373L38.6338 45.3271C38.7611 43.9139 38.9068 42.5209 39.0693 41.1504L38.0771 41.0322C38.2453 39.6144 38.4317 38.2201 38.6357 36.8516L39.624 36.999C39.834 35.5904 40.0622 34.2097 40.3086 32.8594L39.3252 32.6797L39.3242 32.6787C39.5818 31.267 39.8609 29.8881 40.1562 28.5439L41.1318 28.7578C41.4384 27.3622 41.7653 26.0056 42.1103 24.6914L41.1435 24.4375C41.5116 23.0354 41.9014 21.6802 42.3105 20.375L43.2636 20.6738C43.6941 19.3008 44.1461 17.9857 44.6181 16.7334L43.6836 16.3809C44.201 15.0082 44.7434 13.7078 45.3076 12.4844L46.2138 12.9033C46.8215 11.5858 47.4536 10.3643 48.1064 9.24609L47.2431 8.74219C48.0025 7.44143 48.7925 6.26954 49.6103 5.23828L50.3945 5.85938C51.3047 4.71171 52.2363 3.76186 53.1806 3.0166L52.5615 2.23242C53.7583 1.28791 54.9975 0.628316 56.2695 0.282227L56.5322 1.24707C57.136 1.08281 57.744 1 58.3564 1C58.9689 1.00002 59.5768 1.08275 60.1806 1.24707L60.4424 0.283203C61.7141 0.629192 62.9528 1.28823 64.1494 2.23242L63.5312 3.0166C64.4757 3.76192 65.408 4.71157 66.3183 5.85938L67.1006 5.23828C67.9186 6.26966 68.7092 7.44122 69.4687 8.74219L68.6064 9.24609C69.2592 10.3643 69.8904 11.5858 70.498 12.9033L71.4043 12.4844C71.9685 13.7078 72.5109 15.0082 73.0283 16.3809L72.0947 16.7334C72.5668 17.9857 73.0188 19.3008 73.4492 20.6738L74.4013 20.375C74.8105 21.6801 75.1993 23.0355 75.5674 24.4375L74.6025 24.6914C74.9475 26.0056 75.2734 27.3622 75.58 28.7578L76.5547 28.5439C76.85 29.8882 77.13 31.2669 77.3877 32.6787V32.6797L76.4033 32.8594C76.6497 34.2097 76.8788 35.5904 77.0888 36.999L78.0761 36.8516C78.2802 38.2204 78.4666 39.615 78.6347 41.0332L77.6435 41.1504C77.806 42.5209 77.9507 43.9139 78.0781 45.3271L79.0732 45.2373C79.1979 46.6211 79.3057 48.0241 79.3955 49.4443H79.3965L78.3984 49.5068C78.4858 50.8895 78.5565 52.289 78.6093 53.7031L79.6074 53.666Z" stroke="#0DB1B3" stroke-width="2" stroke-dasharray="4 4"/>
</svg>
