<svg width="32" height="32" viewBox="0 0 32 32" fill="none" xmlns="http://www.w3.org/2000/svg">
<path d="M24.6667 23.784C26.04 23.5826 27.0174 23.192 27.7707 22.4373C29.3334 20.876 29.3334 18.3613 29.3334 13.3333C29.3334 8.30529 29.3334 5.79063 27.7707 4.22929C26.208 2.66796 23.6947 2.66663 18.6667 2.66663H13.3334C8.30535 2.66663 5.79069 2.66663 4.22935 4.22929C2.66802 5.79196 2.66669 8.30529 2.66669 13.3333C2.66669 18.3613 2.66669 20.876 4.22935 22.4373C5.30669 23.516 6.83735 23.8506 9.33335 23.9533" stroke="#82D148" stroke-width="1.33333" stroke-linecap="round"/>
<path d="M22.6667 9.33325H9.33337" stroke="#82D148" stroke-width="1.33333" stroke-linecap="round" stroke-linejoin="round"/>
<path d="M19.3334 19.3333C19.3334 20.2174 18.9822 21.0652 18.357 21.6904C17.7319 22.3155 16.8841 22.6667 16 22.6667C15.116 22.6667 14.2681 22.3155 13.643 21.6904C13.0179 21.0652 12.6667 20.2174 12.6667 19.3333C12.6667 18.4493 13.0179 17.6014 13.643 16.9763C14.2681 16.3512 15.116 16 16 16C16.8841 16 17.7319 16.3512 18.357 16.9763C18.9822 17.6014 19.3334 18.4493 19.3334 19.3333Z" stroke="#82D148" stroke-width="1.33333"/>
<path d="M12.6667 19.3333C12.6667 24.7546 14.9627 27.8266 16 29.3333L18 25.3333L20.3334 26.6666L22.6667 27.9999C21.6867 27.0519 20.6747 24.0626 20.6747 24.0626" stroke="#82D148" stroke-width="1.33333" stroke-linecap="round" stroke-linejoin="round"/>
</svg>
